<svg xmlns="http://www.w3.org/2000/svg" width="36" height="38" viewBox="0 0 36 38" fill="none"><path d="M17.1133 0.093217C16.9707 0.148693 16.3763 0.529103 15.7819 0.941213C15.1875 1.35332 14.2286 1.97941 13.65 2.32812C12.4929 3.04139 12.3186 3.2316 12.485 3.64371C12.6039 3.91316 12.7782 4.03204 13.0794 4.03204C13.333 4.03204 15.2351 2.89874 16.5506 1.95564C17.153 1.51975 17.5968 1.25822 17.7156 1.25822C17.8345 1.25822 18.1278 1.4088 18.3893 1.599C22.661 4.70568 27.4716 6.81378 32.5992 7.82821C33.5264 8.01841 33.7008 8.08974 33.7959 8.33542C33.8355 8.43845 33.9306 9.04869 34.0098 9.69856C34.1842 11.1647 34.208 14.9213 34.0574 16.3161C33.7325 19.1929 33.1222 21.6973 32.1712 23.9877C31.981 24.4553 31.8225 24.9466 31.8225 25.0814C31.8225 25.6044 32.4882 25.858 32.8448 25.4776C33.1777 25.121 34.1446 22.4898 34.5884 20.7146C35.4602 17.2433 35.69 12.7022 35.1907 8.92189C35.0084 7.53498 34.5408 6.93266 33.5026 6.72661C28.0897 5.64086 23.8418 3.87354 19.6969 0.972914C19.1184 0.568729 18.5002 0.180394 18.3338 0.109067C17.9772 -0.0335862 17.462 -0.0335862 17.1133 0.093217Z" fill="#01C056"></path><path d="M9.04525 1.4405C8.94223 1.54353 8.8392 1.77336 8.8075 1.97149C8.6807 2.81156 8.32406 4.11129 8.08631 4.63436C7.52362 5.87069 6.7945 6.3145 4.48034 6.80586C3.32326 7.05154 3.13306 7.17042 3.13306 7.59838C3.13306 8.03427 3.32326 8.14522 4.48034 8.3909C6.7945 8.88226 7.51569 9.31022 8.07046 10.5307C8.32406 11.0775 8.67277 12.3693 8.8075 13.2253C8.87883 13.6532 9.14036 13.9385 9.45736 13.9385C9.89325 13.9385 10.0201 13.7404 10.2261 12.7498C10.9077 9.5559 11.4307 9.03284 14.6246 8.35127C15.6073 8.14522 15.8134 8.01842 15.8134 7.59838C15.8134 7.17834 15.6073 7.05154 14.6246 6.84549C11.4387 6.17184 10.8998 5.63293 10.2261 2.447C10.0835 1.75751 9.99628 1.5039 9.86155 1.40088C9.62379 1.20275 9.26716 1.2186 9.04525 1.4405ZM9.65549 5.14157C9.96458 6.01334 11.0583 7.10702 11.93 7.4161C12.1519 7.49535 12.3263 7.5746 12.3263 7.59838C12.3263 7.62216 12.1519 7.70141 11.93 7.78066C11.0583 8.08974 9.96458 9.18342 9.65549 10.0552C9.57624 10.2771 9.49699 10.4515 9.47322 10.4515C9.44944 10.4515 9.37019 10.2771 9.29094 10.0552C8.98185 9.18342 7.88818 8.08974 7.0164 7.78066C6.7945 7.70141 6.62014 7.62216 6.62014 7.59838C6.62014 7.5746 6.7945 7.49535 7.0164 7.4161C7.88818 7.10702 8.98185 6.01334 9.29094 5.14157C9.37019 4.91966 9.44944 4.74531 9.47322 4.74531C9.49699 4.74531 9.57624 4.91966 9.65549 5.14157Z" fill="#01C056"></path><path d="M17.0736 4.55512C16.5902 4.75325 16.4634 5.24461 16.8121 5.59332C16.9944 5.7756 17.0499 5.79145 17.4303 5.7439C17.8424 5.68842 17.8503 5.69635 18.9044 6.33036C20.9094 7.54292 23.5882 8.86642 24.0399 8.86642C24.5154 8.86642 24.7849 8.21656 24.4758 7.852C24.3965 7.76482 23.9923 7.54292 23.5802 7.36064C22.4945 6.88513 20.7351 5.95788 19.578 5.26046C19.0312 4.9276 18.4605 4.60267 18.31 4.53927C17.9613 4.39661 17.4382 4.40454 17.0736 4.55512Z" fill="#01C056"></path><path d="M0.612954 8.31165C0.509926 8.35128 0.383123 8.50186 0.327647 8.64451C-0.0131366 9.46081 -0.116164 14.4537 0.153293 16.752C0.644655 20.992 1.93646 24.9229 3.79888 27.879C4.17137 28.4654 4.58348 28.5764 4.95596 28.2039C5.20957 27.9503 5.14617 27.6888 4.5914 26.714C2.07119 22.3313 0.86656 16.5301 1.31037 10.9666C1.50058 8.60489 1.50058 8.68414 1.34207 8.49393C1.15979 8.28788 0.86656 8.20863 0.612954 8.31165Z" fill="#01C056"></path><path d="M26.362 8.84265C26.2748 8.9219 26.1718 9.09626 26.148 9.22306C26.0767 9.6114 26.3303 9.84915 27.0753 10.0948C27.63 10.285 27.741 10.293 27.947 10.2137C28.2244 10.0948 28.3354 9.92048 28.3354 9.59555C28.3354 9.28646 28.0897 9.08041 27.4715 8.87435C26.8454 8.6683 26.5839 8.6683 26.362 8.84265Z" fill="#01C056"></path><path d="M30.3165 9.9918C29.8806 10.1503 29.8014 10.6179 30.1422 11.0617C30.3482 11.347 30.3561 11.3787 30.3799 12.5833C30.4433 15.2383 30.0471 17.9883 29.2466 20.564C29.096 21.0554 28.9692 21.5388 28.9692 21.6418C28.9692 22.0857 29.7221 22.371 30.0154 22.0381C30.2769 21.7449 30.903 19.5575 31.22 17.8219C31.537 16.0467 31.6163 15.1115 31.6242 13.0668C31.6242 10.9349 31.6083 10.8319 31.117 10.2771C30.8475 9.96803 30.6098 9.88085 30.3165 9.9918Z" fill="#01C056"></path><path d="M4.23491 10.4911C4.11603 10.5545 3.97338 10.7209 3.92582 10.8636C3.77525 11.244 3.73562 13.2728 3.83865 14.7548C4.36964 22.2124 7.38913 27.8076 12.8337 31.3819C14.4188 32.428 16.9865 33.593 17.7077 33.593C18.2546 33.593 20.8382 32.5152 21.0918 32.1823C21.3533 31.8416 21.076 31.2155 20.6559 31.2155C20.537 31.2155 20.0457 31.3898 19.5702 31.6038C19.0947 31.8178 18.4686 32.0714 18.1833 32.1744L17.6602 32.3567L16.7963 32.0159C15.6947 31.58 14.3395 30.8747 13.4123 30.2565C8.68887 27.0944 5.9309 22.2521 5.18593 15.801C5.07498 14.7945 5.04328 11.5848 5.1463 11.1489C5.20971 10.8794 5.19386 10.8319 4.97195 10.61C4.70249 10.3484 4.54399 10.3247 4.23491 10.4911Z" fill="#01C056"></path><path d="M24.4441 12.7815C24.024 12.932 23.7863 13.1222 22.9066 14.0336C22.4707 14.4775 21.0204 15.9674 19.681 17.3226C17.3431 19.7081 17.2401 19.8032 16.9468 19.8032C16.6695 19.8032 16.5744 19.7239 15.3222 18.4718C14.5455 17.6951 13.8798 17.0928 13.6975 17.0135C13.3171 16.8392 12.5008 16.8312 12.1125 16.9897C11.7558 17.1403 10.5433 18.3212 10.3214 18.7333C10.0836 19.1771 10.0836 20.1123 10.3214 20.5561C10.4165 20.7304 11.6845 22.0856 13.1507 23.5756C16.1226 26.603 16.2177 26.6743 17.0816 26.5951C17.3273 26.5792 17.668 26.4841 17.8424 26.397C18.2862 26.1671 27.3526 16.9105 27.6221 16.4112C27.8915 15.904 27.8995 15.0877 27.63 14.5726C27.3368 14.0099 26.2273 12.9637 25.7597 12.8052C25.3079 12.6467 24.8403 12.6388 24.4441 12.7815ZM25.934 14.5171C26.4412 15.0084 26.5284 15.1352 26.568 15.4285C26.6235 15.8168 26.7979 15.6108 23.3029 19.1692C18.7379 23.8213 17.2718 25.2795 17.0895 25.3271C16.9944 25.3508 16.8042 25.3191 16.6853 25.2637C16.3445 25.0972 11.4705 20.0964 11.4071 19.8507C11.3279 19.51 11.4309 19.2801 11.9143 18.765C12.4691 18.1548 12.7703 18.0121 13.1428 18.1627C13.2775 18.2261 13.9353 18.8284 14.5851 19.502C15.2905 20.2312 15.9007 20.7859 16.0909 20.8731C16.511 21.0791 17.4065 21.0871 17.7948 20.8889C17.9454 20.8097 19.5859 19.2167 21.4404 17.3385C25.3951 13.3442 24.9909 13.5978 25.934 14.5171Z" fill="#01C056"></path><path d="M28.7394 24.2254C28.6047 24.3285 28.5175 24.5821 28.3749 25.2716C27.7012 28.4575 27.1623 28.9964 23.9764 29.6701C22.9937 29.8761 22.7876 30.0029 22.7876 30.4229C22.7876 30.8509 22.9778 30.9698 24.1349 31.2155C27.1702 31.8653 27.7012 32.4122 28.3749 35.5743C28.5809 36.5571 28.7077 36.7631 29.1278 36.7631C29.5636 36.7631 29.6746 36.5729 29.9203 35.4158C30.3958 33.1175 30.8396 32.3805 32.0601 31.8257C32.6069 31.5721 33.8987 31.2234 34.7546 31.0887C35.1826 31.0173 35.4679 30.7558 35.4679 30.4388C35.4679 30.0029 35.2698 29.8761 34.2791 29.6701C31.1091 28.9964 30.5622 28.4654 29.9203 25.4301C29.7459 24.6059 29.6508 24.3285 29.5161 24.2254C29.3021 24.0432 28.9534 24.0432 28.7394 24.2254ZM29.31 27.9661C29.6191 28.8379 30.7128 29.9316 31.5846 30.2407C31.8065 30.3199 31.9808 30.3992 31.9808 30.4229C31.9808 30.4467 31.8065 30.526 31.5846 30.6052C30.7128 30.9143 29.6191 32.008 29.31 32.8798C29.2308 33.1017 29.1515 33.276 29.1278 33.276C29.104 33.276 29.0247 33.1017 28.9455 32.8798C28.6364 32.008 27.5427 30.9143 26.6709 30.6052C26.449 30.526 26.2747 30.4467 26.2747 30.4229C26.2747 30.3992 26.449 30.3199 26.6709 30.2407C27.5427 29.9316 28.6364 28.8379 28.9455 27.9661C29.0247 27.7442 29.104 27.5699 29.1278 27.5699C29.1515 27.5699 29.2308 27.7442 29.31 27.9661Z" fill="#01C056"></path><path d="M5.69302 29.5116C5.48697 29.6542 5.40772 29.9554 5.50282 30.201C5.54244 30.312 5.75643 30.5973 5.98626 30.843C6.31119 31.1996 6.44592 31.2947 6.63612 31.2947C6.95313 31.2947 7.13541 31.1838 7.24636 30.9143C7.37317 30.6052 7.27806 30.3913 6.77878 29.8444C6.33496 29.353 6.04173 29.2659 5.69302 29.5116Z" fill="#01C056"></path><path d="M8.12616 32.1269C7.9201 32.3488 7.88048 32.7213 8.05483 32.9273C8.28466 33.2126 9.79045 34.3618 10.789 35.0117C12.5405 36.1687 14.926 37.2862 16.8042 37.833C17.676 38.0866 17.9376 38.0708 19.1977 37.6507C21.1156 37.0009 23.1444 36.0182 24.7453 34.9482C25.5061 34.4331 25.522 34.4173 25.5457 34.0923C25.5616 33.8387 25.5299 33.7198 25.411 33.601C25.1178 33.3077 24.8166 33.387 23.9052 33.9814C22.3281 35.0037 20.4736 35.8913 18.6429 36.4937L17.7077 36.8027L16.4397 36.3748C14.2603 35.6457 11.8906 34.3697 10.1075 32.9828C8.79187 31.9604 8.74432 31.9287 8.52242 31.9287C8.40354 31.9287 8.23711 32.008 8.12616 32.1269Z" fill="#01C056"></path></svg>