<svg xmlns="http://www.w3.org/2000/svg" width="70" height="39" viewBox="0 0 70 39" fill="none"><path d="M54.1789 0.140359C51.905 0.660881 50.0969 1.60604 48.549 3.05802C46.6313 4.86615 46.6861 5.52366 48.8641 7.16741C50.4256 8.34544 50.6174 8.44132 51.2064 8.44132C51.5763 8.44132 51.8776 8.27695 52.631 7.64684C54.0419 6.45512 54.7679 6.18116 56.439 6.18116C57.6855 6.18116 57.891 6.22225 58.6992 6.60579C60.3567 7.38658 61.5484 9.00294 61.8497 10.8522C61.9319 11.3042 61.9867 12.537 61.9867 13.6055V15.5643H60.3977H58.8088L58.028 14.9068C55.8637 13.0438 53.2885 11.8932 50.5763 11.5782C49.727 11.4823 43.1109 11.4549 30.3444 11.4823L11.3727 11.5234L10.0714 11.8795C8.35919 12.3589 7.18117 12.9206 6.92091 13.4C6.74284 13.7424 6.74284 13.8246 6.92091 14.1534C7.04419 14.3725 7.30445 14.6191 7.49622 14.715C7.81128 14.8657 7.97565 14.8246 8.87972 14.4684C11.2906 13.5096 9.53722 13.5781 31.0978 13.5781C49.275 13.5781 50.6174 13.5918 51.5763 13.8246C52.7817 14.1123 53.8912 14.5506 54.8227 15.0985L55.4802 15.4958L51.5078 15.5643C47.7271 15.6328 47.508 15.6464 46.9053 15.9478C46.0697 16.3587 45.3574 17.0573 44.8917 17.934L44.5218 18.6463V25.2898C44.5218 31.7826 44.5218 31.947 44.8095 32.5634C45.2341 33.4812 46.0012 34.262 46.8916 34.7003C47.6586 35.0839 47.7134 35.0839 50.8229 35.1523C53.9597 35.2208 53.9734 35.2208 53.357 35.4537C51.2886 36.2208 52.357 36.166 38.0701 36.2482C25.3584 36.3167 24.8789 36.3304 24.605 36.5769C24.2214 36.9194 24.2214 37.6591 24.5913 38.0289C24.8652 38.3029 24.9611 38.3166 38.1249 38.2755L51.3708 38.2344L52.4666 37.9193C53.9049 37.5221 55.8089 36.6043 56.85 35.8372L57.6719 35.2208L62.2607 35.1523C66.6851 35.0839 66.8769 35.0702 67.5344 34.7688C68.3974 34.3716 69.1644 33.6319 69.6302 32.7552L70 32.0703V25.3583V18.6463L69.6576 17.9614C69.4795 17.5916 69.0686 17.0299 68.7535 16.7286L68.1919 16.1807L68.1097 13.0301C68.0275 9.50976 67.8357 8.44132 67.0139 6.79757C66.6029 5.96199 66.5481 5.9072 66.055 5.86611C65.014 5.78392 64.7126 6.42772 65.2057 7.66054C65.8632 9.2769 65.9728 9.89331 66.055 12.7836L66.1372 15.5643H65.1098H64.0825L64.0003 12.989C63.9455 11.3316 63.8496 10.1673 63.7127 9.67414C63.1647 7.72903 61.7675 5.9209 60.0553 4.97574C57.439 3.52375 54.1104 3.79771 51.768 5.67433L51.0557 6.23595L50.3297 5.68803C49.9188 5.38668 49.5901 5.07162 49.5901 4.97574C49.5901 4.70178 51.2064 3.51006 52.3296 2.96214C53.9049 2.19505 55.0144 1.96219 56.85 2.03068C58.6581 2.11286 60.0416 2.5238 61.521 3.45526C62.0689 3.78402 62.6579 4.05797 62.8634 4.05797C63.3702 4.05797 63.7674 3.60594 63.7674 3.04433C63.7674 2.66078 63.6579 2.48271 63.2606 2.14026C62.6031 1.59234 60.521 0.578694 59.4526 0.291037C58.3567 -0.0103186 55.2062 -0.106204 54.1789 0.140359ZM66.9317 17.9203C67.2741 18.1121 67.5618 18.4271 67.7399 18.797C68.0138 19.3449 68.0275 19.5778 67.9864 25.5364C67.9453 31.5224 67.9316 31.7142 67.6577 32.084C67.507 32.2895 67.2056 32.5908 67.0002 32.7415C66.6303 33.0292 66.507 33.0292 57.2883 33.0292C48.3709 33.0292 47.9326 33.0155 47.5628 32.7689C47.3573 32.6319 47.0422 32.3169 46.8779 32.084C46.5765 31.6594 46.5765 31.6457 46.5765 25.3309C46.5765 19.1257 46.5765 19.0024 46.8642 18.6189C47.0148 18.4134 47.3573 18.0984 47.6039 17.9203L48.0559 17.619H57.2335H66.3975L66.9317 17.9203Z" fill="#01C056"></path><path d="M56.2062 19.0298C53.2201 19.8791 52.2612 23.6734 54.5077 25.824C54.9871 26.2898 55.0008 26.3308 55.0008 27.3171C55.0008 28.2486 55.0282 28.3581 55.398 28.728C55.7953 29.1115 55.8364 29.1252 57.261 29.1252C58.6856 29.1252 58.7266 29.1115 59.1239 28.728C59.4937 28.3581 59.5211 28.2486 59.5211 27.3445V26.3582L60.206 25.6049C62.4662 23.1392 60.9457 19.2353 57.6034 18.9202C57.1651 18.8792 56.5761 18.9339 56.2062 19.0298ZM58.1513 21.2078C58.8225 21.564 59.2472 22.2215 59.2472 22.9338C59.2472 23.5502 59.0554 23.8652 58.2883 24.6186C57.6445 25.2487 57.4664 25.6733 57.4664 26.6048C57.4664 26.9336 57.3979 27.0705 57.261 27.0705C57.1103 27.0705 57.0555 26.9062 57.0555 26.4541C57.0555 25.6049 56.7815 25.0158 56.1651 24.5501C55.6446 24.1529 55.2748 23.4817 55.2748 22.9338C55.2748 22.3173 55.809 21.4818 56.4117 21.1941C57.1377 20.8243 57.3979 20.838 58.1513 21.2078Z" fill="#01C056"></path><path d="M3.26354 16.0711C2.03072 17.4135 0.893792 19.564 0.318478 21.7009C-0.106159 23.2625 -0.106159 26.3856 0.318478 28.0979C1.56499 33.0839 5.64698 37.0016 10.6878 38.0426C11.7426 38.2618 12.5782 38.3029 16.3999 38.3029H20.8791L21.1531 37.9467C21.5092 37.4947 21.5229 37.0563 21.1805 36.6454L20.9202 36.3167L16.0711 36.2345C12.0576 36.166 11.0988 36.1112 10.4139 35.9194C5.16756 34.3852 1.72937 29.6047 2.03072 24.2624C2.1677 21.9064 2.93479 19.8791 4.40047 17.9477C5.22235 16.8656 5.34563 16.3176 4.8662 15.8382C4.41417 15.3862 3.81146 15.4821 3.26354 16.0711Z" fill="#01C056"></path><path d="M12.5782 20.2763C12.222 20.5914 12.1946 20.6873 12.1398 21.8516L12.0987 23.0981L11.0988 22.5502C10.0166 21.9612 9.61941 21.8927 9.13998 22.2215C8.92081 22.3721 8.83862 22.5639 8.83862 22.9611C8.83862 23.5502 9.05779 23.7693 10.3865 24.5227C10.7426 24.7282 11.0029 24.9474 10.9618 25.0158C10.9207 25.0706 10.5372 25.3309 10.0988 25.5638C8.9893 26.1939 8.83862 26.3582 8.83862 26.9336C8.83862 28.0157 9.70159 28.1801 11.1262 27.3445L12.0576 26.8103L12.1261 28.0431C12.1946 29.1937 12.2357 29.317 12.5782 29.6184C13.0439 30.0156 13.3453 30.0293 13.8247 29.6594C14.1671 29.3992 14.1808 29.317 14.1808 28.0842C14.1808 27.3719 14.2219 26.7966 14.2767 26.7966C14.3315 26.7966 14.7835 27.0431 15.2904 27.3445C15.8383 27.6595 16.3862 27.8924 16.6328 27.8924C17.3998 27.8924 17.8382 27.0842 17.4683 26.3856C17.3998 26.2487 16.8656 25.8651 16.304 25.5501L15.2904 24.961L16.2081 24.4268C17.4683 23.6734 17.6053 23.5365 17.6053 23.0022C17.6053 22.4406 17.1944 22.0023 16.6602 22.0023C16.441 22.0023 15.8383 22.2489 15.3041 22.5502C14.7835 22.8516 14.3178 23.0981 14.263 23.0981C14.2219 23.0981 14.1808 22.5228 14.1808 21.8105C14.1808 20.5777 14.1671 20.4955 13.8247 20.2353C13.3453 19.8654 13.0439 19.8791 12.5782 20.2763Z" fill="#01C056"></path><path d="M24.1257 20.2352C23.7832 20.4955 23.7695 20.5777 23.7695 21.8105C23.7695 22.5228 23.7284 23.0981 23.6873 23.0981C23.6462 23.0981 23.1942 22.8516 22.6737 22.5502C22.1257 22.2351 21.5641 22.0023 21.3176 22.0023C20.5505 22.0023 20.1121 22.8105 20.482 23.5091C20.5505 23.646 21.0025 23.9748 21.4682 24.2487C21.9477 24.509 22.4134 24.783 22.523 24.8515C22.6463 24.9473 22.4271 25.1391 21.66 25.5501C21.0847 25.8788 20.5505 26.2487 20.482 26.3856C20.1121 27.0842 20.5505 27.8924 21.3176 27.8924C21.5641 27.8924 22.1257 27.6595 22.6737 27.3445C23.1942 27.0431 23.6462 26.7966 23.6873 26.7966C23.7284 26.7966 23.7695 27.3719 23.7695 28.0842C23.7695 29.317 23.7832 29.3992 24.1257 29.6594C24.5366 29.9882 24.7147 30.0156 25.1804 29.7964C25.6735 29.5773 25.8242 29.1115 25.8242 27.8787V26.7829L26.8378 27.3308C27.9611 27.9609 28.5364 28.0294 28.9062 27.6184C29.1939 27.2897 29.235 26.6322 28.9747 26.3171C28.8788 26.1939 28.372 25.8514 27.8515 25.5501C27.3447 25.2487 26.92 24.9884 26.92 24.961C26.92 24.9336 27.3447 24.6597 27.8515 24.3583C28.372 24.0433 28.8788 23.7008 28.9747 23.5775C29.235 23.2625 29.1939 22.605 28.9062 22.2762C28.5227 21.8516 27.92 21.9338 26.8652 22.5502C26.3584 22.8516 25.9064 23.0981 25.879 23.0981C25.8516 23.0981 25.8242 22.605 25.8242 22.0023C25.8242 20.7832 25.6735 20.3174 25.1804 20.0983C24.7147 19.8791 24.5366 19.9065 24.1257 20.2352Z" fill="#01C056"></path><path d="M35.7689 20.2353C35.4264 20.4955 35.4127 20.5777 35.4127 21.8105C35.4127 22.5228 35.3716 23.0981 35.3306 23.0981C35.2758 23.0981 34.81 22.8516 34.2895 22.5502C33.7553 22.2489 33.1526 22.0023 32.9334 22.0023C32.1937 22.0023 31.7554 22.8105 32.1252 23.5091C32.1937 23.646 32.6184 23.9611 33.043 24.2077C34.4539 25.0021 34.4402 24.8926 33.2759 25.5638C32.7142 25.8788 32.1937 26.2624 32.1252 26.3993C31.7554 27.0842 32.1937 27.8924 32.9608 27.8924C33.2074 27.8924 33.769 27.6595 34.3169 27.3445C34.8374 27.0431 35.2895 26.7966 35.3306 26.7966C35.3716 26.7966 35.4127 27.3719 35.4127 28.0842C35.4127 29.317 35.4264 29.3992 35.7689 29.6594C36.2483 30.0293 36.5497 30.0156 37.0154 29.6184C37.3716 29.3033 37.3989 29.2074 37.4537 28.0431L37.4948 26.7966L38.4948 27.3445C39.0427 27.6458 39.6728 27.8924 39.892 27.8924C40.4262 27.8924 40.7549 27.5089 40.7549 26.8925C40.7549 26.3582 40.5084 26.1117 39.2208 25.372C38.8509 25.1665 38.5633 24.9747 38.5633 24.9474C38.5633 24.92 38.9879 24.646 39.4947 24.3446C40.0153 24.0433 40.5221 23.7008 40.618 23.5776C40.8919 23.2488 40.8234 22.5228 40.4673 22.2489C40.029 21.879 39.5906 21.9475 38.4948 22.5502L37.4948 23.0981L37.4537 21.8516C37.3989 20.6873 37.3716 20.5914 37.0154 20.2763C36.5497 19.8791 36.2483 19.8654 35.7689 20.2353Z" fill="#01C056"></path></svg>